<?xml version="1.0" encoding="UTF-8"?><svg width="289.89" height="77.46" xmlns="http://www.w3.org/2000/svg" viewBox="0 0 289.89 77.46"><defs><style>#logo_dark .cls-1{fill:#1d1d1b !important;}.cls-2{fill:#354496;}.cls-3{fill:#3aaa35;}.cls-4{fill:#aac811;}.cls-5{fill:#dedc00;}.cls-6{fill:#fd0;}.cls-7{fill:#1d71b8;}</style></defs><title>Sans titre - 1</title><path class="cls-1" d="M117.48,64.55a4.93,4.93,0,0,1,3.66,1.26,5,5,0,0,1,1.24,3.68,4.57,4.57,0,0,1-1.45,3.67,6.15,6.15,0,0,1-4.14,1.25H115V64.55Zm-.15.84H116v8.17h.77a5.24,5.24,0,0,0,3.5-1,3.82,3.82,0,0,0,1.17-3.07Q121.4,65.4,117.33,65.39Z"></path><path class="cls-1" d="M129.34,66.61l-2.93,8.86q-.14.36-.3.72a3.21,3.21,0,0,1-.39.63,2,2,0,0,1-.52.46,1.16,1.16,0,0,1-.63.18,4.52,4.52,0,0,1-.58,0,2,2,0,0,1-.36-.08l.07-.74.64.11a.93.93,0,0,0,.75-.35,2.52,2.52,0,0,0,.47-1l.27-1-2.56-7.72h1l2,6.55,2.11-6.55Z"></path><path class="cls-1" d="M136,74.41v-5a2.63,2.63,0,0,0-.46-1.63,1.44,1.44,0,0,0-1.23-.61,1.93,1.93,0,0,0-.91.2,2,2,0,0,0-.68.57,2.7,2.7,0,0,0-.44.9,4.67,4.67,0,0,0-.14,1.16v4.39h-.89v-7.8h.8V68A2.41,2.41,0,0,1,133,66.8a2.8,2.8,0,0,1,1.46-.36,2.16,2.16,0,0,1,1.82.79,3.56,3.56,0,0,1,.62,2.24v4.94Z"></path><path class="cls-1" d="M140.52,71a1.49,1.49,0,0,0-.72,1.32,1.65,1.65,0,0,0,.36,1.13,1.47,1.47,0,0,0,1.16.41,1.83,1.83,0,0,0,1.57-.7,2.9,2.9,0,0,0,.53-1.83V69a1.89,1.89,0,0,0-.43-1.38,1.65,1.65,0,0,0-1.23-.44,3.85,3.85,0,0,0-1.1.16,3.47,3.47,0,0,0-1,.45l-.28-.59a2.4,2.4,0,0,1,.33-.2l.58-.26a6.13,6.13,0,0,1,.72-.22,3,3,0,0,1,.78-.1,2.54,2.54,0,0,1,1.88.65,2.64,2.64,0,0,1,.63,1.92v4.68a2.24,2.24,0,0,0,0,.38,1.25,1.25,0,0,1,0,.33h-.8V73.27a2.7,2.7,0,0,1-1.1,1,3,3,0,0,1-1.26.28,2.22,2.22,0,0,1-1.71-.65,2.3,2.3,0,0,1-.62-1.66,2.17,2.17,0,0,1,1-1.91,5,5,0,0,1,2.83-.67h.1c0,.16,0,.29,0,.39v.26c0,.07,0,.11,0,.11A4.34,4.34,0,0,0,140.52,71Z"></path><path class="cls-1" d="M155,74.41v-5a2.93,2.93,0,0,0-.4-1.64,1.25,1.25,0,0,0-1.11-.6A1.67,1.67,0,0,0,152,68a3.7,3.7,0,0,0-.52,2.06v4.39h-.89v-5a2.93,2.93,0,0,0-.4-1.64,1.28,1.28,0,0,0-1.12-.6,1.67,1.67,0,0,0-1.47.77,3.61,3.61,0,0,0-.52,2.06v4.39h-.89v-7.8H147V68a2.34,2.34,0,0,1,.89-1.16,2.6,2.6,0,0,1,1.42-.36,2,2,0,0,1,1.25.4,1.75,1.75,0,0,1,.67,1.19,2.43,2.43,0,0,1,.84-1.16,2.4,2.4,0,0,1,1.48-.43,2,2,0,0,1,1.73.79,3.69,3.69,0,0,1,.59,2.24v4.94Z"></path><path class="cls-1" d="M165.55,74a2,2,0,0,1-.66.38,3.46,3.46,0,0,1-1.14.16,3.54,3.54,0,0,1-1.45-.29,3.12,3.12,0,0,1-1.11-.82,4,4,0,0,1-.7-1.29,5.5,5.5,0,0,1-.24-1.68,5.1,5.1,0,0,1,.26-1.65,3.9,3.9,0,0,1,.73-1.28,3.38,3.38,0,0,1,1.14-.84,3.67,3.67,0,0,1,1.47-.29,4.43,4.43,0,0,1,1,.1,6.92,6.92,0,0,1,.74.22l-.08.84a1.83,1.83,0,0,0-.26-.11l-.37-.13-.43-.11a2.59,2.59,0,0,0-.47,0,2.8,2.8,0,0,0-1.14.23,2.58,2.58,0,0,0-.87.66,3,3,0,0,0-.55,1,4.66,4.66,0,0,0-.19,1.34,4.8,4.8,0,0,0,.19,1.36,3.23,3.23,0,0,0,.55,1.06,2.41,2.41,0,0,0,2.49.87,3.85,3.85,0,0,0,.48-.16,2.9,2.9,0,0,0,.36-.2.76.76,0,0,0,.18-.16Z"></path><path class="cls-1" d="M173.7,64.55a4.93,4.93,0,0,1,3.66,1.26,5,5,0,0,1,1.24,3.68,4.6,4.6,0,0,1-1.45,3.67A6.15,6.15,0,0,1,173,74.41h-1.8V64.55Zm-.15.84h-1.37v8.17H173a5.24,5.24,0,0,0,3.5-1,3.81,3.81,0,0,0,1.17-3.07C177.62,66.76,176.27,65.39,173.55,65.39Z"></path><path class="cls-1" d="M187.86,73.66a2.54,2.54,0,0,1-.54.46,1.8,1.8,0,0,1-.58.23,3.18,3.18,0,0,1-.62.06,2.79,2.79,0,0,1-1.27-.28,2.91,2.91,0,0,1-1-.79,3.56,3.56,0,0,1-.62-1.23,5.36,5.36,0,0,1-.22-1.61,5.16,5.16,0,0,1,.75-3,2.65,2.65,0,0,1,2.31-1,5.17,5.17,0,0,1,.57,0,2.27,2.27,0,0,1,.56.13,2.49,2.49,0,0,1,.54.31,3.26,3.26,0,0,1,.55.56v-.86h.89v7.21a4.8,4.8,0,0,1-.23,1.52,3.06,3.06,0,0,1-.66,1.14,2.74,2.74,0,0,1-1,.72,3.56,3.56,0,0,1-1.37.26,6.26,6.26,0,0,1-.78,0c-.25,0-.47-.07-.67-.11a3.7,3.7,0,0,1-.52-.15l-.32-.11.08-.89a1.16,1.16,0,0,0,.29.17l.5.18a5.44,5.44,0,0,0,.66.14,4.53,4.53,0,0,0,.74,0,2.13,2.13,0,0,0,1.87-.78,4.42,4.42,0,0,0,.56-2.5v-.5A3.33,3.33,0,0,1,187.86,73.66ZM187.81,68a1.86,1.86,0,0,0-1.71-.84,1.77,1.77,0,0,0-.9.23,2,2,0,0,0-.65.67,3.46,3.46,0,0,0-.39,1A6.34,6.34,0,0,0,184,70.5a5.69,5.69,0,0,0,.14,1.3,3.47,3.47,0,0,0,.41,1,2,2,0,0,0,.66.63,1.72,1.72,0,0,0,.88.23,1.87,1.87,0,0,0,.92-.23,2.27,2.27,0,0,0,.7-.65,3,3,0,0,0,.44-1,5,5,0,0,0,.16-1.28A4.79,4.79,0,0,0,187.81,68Z"></path><path class="cls-1" d="M196.19,73.55a.86.86,0,0,0,.69.28,1.75,1.75,0,0,0,.5-.06l.3-.11,0,.72a2.26,2.26,0,0,1-.4.12,2.8,2.8,0,0,1-.67.08,1.41,1.41,0,0,1-1.25-.49,2.87,2.87,0,0,1-.35-1.63V67.37h-1.41v-.76H195V64.86l.89-.31v2.06h1.65v.76h-1.65v5.38A1.17,1.17,0,0,0,196.19,73.55Z"></path><path class="cls-1" d="M200.6,71a1.48,1.48,0,0,0-.73,1.32,1.65,1.65,0,0,0,.36,1.13,1.49,1.49,0,0,0,1.16.41,1.86,1.86,0,0,0,1.58-.7,3,3,0,0,0,.53-1.83V69a1.89,1.89,0,0,0-.44-1.38,1.63,1.63,0,0,0-1.23-.44,3.9,3.9,0,0,0-1.1.16,3.6,3.6,0,0,0-1,.45l-.28-.59.33-.2.58-.26a5.77,5.77,0,0,1,.73-.22,3,3,0,0,1,.77-.1,2.52,2.52,0,0,1,1.88.65,2.64,2.64,0,0,1,.63,1.92v4.68c0,.14,0,.27,0,.38a1.25,1.25,0,0,1,0,.33h-.8V73.27a2.7,2.7,0,0,1-1.1,1,3,3,0,0,1-1.26.28,2.22,2.22,0,0,1-1.71-.65,2.3,2.3,0,0,1-.61-1.66,2.16,2.16,0,0,1,1-1.91,5,5,0,0,1,2.83-.67h.1c0,.16,0,.29,0,.39v.26c0,.07,0,.11,0,.11A4.3,4.3,0,0,0,200.6,71Z"></path><path class="cls-1" d="M207.18,63.83V74.41h-.88V63.83Z"></path><path class="cls-1" d="M216,64.55a4.93,4.93,0,0,1,3.66,1.26,5,5,0,0,1,1.24,3.68,4.6,4.6,0,0,1-1.45,3.67,6.15,6.15,0,0,1-4.14,1.25h-1.81V64.55Zm-.15.84h-1.37v8.17h.77a5.26,5.26,0,0,0,3.5-1A3.81,3.81,0,0,0,220,69.49Q220,65.4,215.88,65.39Z"></path><path class="cls-1" d="M229.87,73.26a1.92,1.92,0,0,1-.52.71,2.48,2.48,0,0,1-.81.46,3.23,3.23,0,0,1-1.06.16,5.19,5.19,0,0,1-1.12-.12,3.11,3.11,0,0,1-.82-.27l.1-.87a1.25,1.25,0,0,0,.24.14l.44.16.55.13a3.08,3.08,0,0,0,.61.06,1.8,1.8,0,0,0,.62-.11,1.51,1.51,0,0,0,.51-.29A1.24,1.24,0,0,0,229,73a1.32,1.32,0,0,0,.13-.56,1.4,1.4,0,0,0-.45-1.05,2.66,2.66,0,0,0-.5-.36l-.59-.32-.65-.34a3,3,0,0,1-.62-.44,2,2,0,0,1-.47-.6,1.73,1.73,0,0,1-.18-.81,2.07,2.07,0,0,1,.18-.88,1.72,1.72,0,0,1,.48-.65,2.06,2.06,0,0,1,.73-.4,3.09,3.09,0,0,1,.94-.14l.49,0,.52.1a2.56,2.56,0,0,1,.46.12,1.82,1.82,0,0,1,.32.12l-.1.74a4.42,4.42,0,0,0-.77-.24,3.91,3.91,0,0,0-.87-.11,1.63,1.63,0,0,0-1.13.35,1.27,1.27,0,0,0-.36,1,1,1,0,0,0,.46.82,5.19,5.19,0,0,0,1.13.67,4.36,4.36,0,0,1,1.42,1,1.94,1.94,0,0,1,.52,1.39A2.33,2.33,0,0,1,229.87,73.26Z"></path><path class="cls-1" d="M233.75,73.55a.88.88,0,0,0,.69.28,1.75,1.75,0,0,0,.5-.06l.3-.11,0,.72a2.26,2.26,0,0,1-.4.12,2.8,2.8,0,0,1-.67.08,1.42,1.42,0,0,1-1.25-.49,2.87,2.87,0,0,1-.35-1.63V67.37h-1.41v-.76h1.41V64.86l.89-.31v2.06h1.65v.76h-1.65v5.38A1.17,1.17,0,0,0,233.75,73.55Z"></path><path class="cls-1" d="M237,74.41v-7.8h.8v1.52a2.73,2.73,0,0,1,.83-1.29,1.79,1.79,0,0,1,1.12-.4l1,.24-.45.87-.65-.18a1.3,1.3,0,0,0-.75.23,1.89,1.89,0,0,0-.56.65,3.36,3.36,0,0,0-.34,1,6.61,6.61,0,0,0-.13,1.31v3.85Z"></path><path class="cls-1" d="M247.07,66.71a2.94,2.94,0,0,1,1.26-.27,2.66,2.66,0,0,1,1.26.28,2.52,2.52,0,0,1,.91.81,3.53,3.53,0,0,1,.57,1.27,6.86,6.86,0,0,1,.19,1.7,6.23,6.23,0,0,1-.21,1.68,4,4,0,0,1-.6,1.29,2.67,2.67,0,0,1-.95.82,2.79,2.79,0,0,1-1.27.29A2.54,2.54,0,0,1,247,74.3a3.12,3.12,0,0,1-1-1.07v1.18h-.89V63.83H246v4A3,3,0,0,1,247.07,66.71Zm-.93,5.15a3.43,3.43,0,0,0,.47,1,2.16,2.16,0,0,0,.7.68,1.72,1.72,0,0,0,.89.24,1.63,1.63,0,0,0,.87-.24,2.11,2.11,0,0,0,.66-.67,3.6,3.6,0,0,0,.42-1,6.25,6.25,0,0,0,.14-1.36,4.64,4.64,0,0,0-.54-2.42,1.72,1.72,0,0,0-1.55-.88,1.94,1.94,0,0,0-.95.23,2.1,2.1,0,0,0-.69.67,3.23,3.23,0,0,0-.44,1.05A5.58,5.58,0,0,0,246,70.5,5.22,5.22,0,0,0,246.14,71.86Z"></path><path class="cls-1" d="M258.61,74.41h-.79l0-1.33a2.29,2.29,0,0,1-.89,1.11,2.54,2.54,0,0,1-1.44.39,2.24,2.24,0,0,1-1.89-.79,3.74,3.74,0,0,1-.62-2.33V66.61h.89v4.85a2.93,2.93,0,0,0,.45,1.74,1.48,1.48,0,0,0,1.29.62,1.92,1.92,0,0,0,.87-.2,2.12,2.12,0,0,0,.68-.55,2.52,2.52,0,0,0,.43-.85,3.85,3.85,0,0,0,.15-1.1V66.61h.89Z"></path><path class="cls-1" d="M262.84,73.55a.88.88,0,0,0,.69.28,1.66,1.66,0,0,0,.5-.06l.3-.11,0,.72a1.82,1.82,0,0,1-.39.12,2.88,2.88,0,0,1-.68.08,1.42,1.42,0,0,1-1.25-.49,2.89,2.89,0,0,1-.34-1.63V67.37h-1.41v-.76h1.41V64.86l.89-.31v2.06h1.65v.76h-1.65v5.38A1.16,1.16,0,0,0,262.84,73.55Z"></path><rect class="cls-1" x="266.1" y="63.5" width="0.9" height="1.2"></rect><rect class="cls-1" x="266.1" y="66.61" width="0.87" height="7.8"></rect><rect class="cls-1" x="241.99" y="63.5" width="0.9" height="1.2"></rect><rect class="cls-1" x="241.99" y="66.61" width="0.88" height="7.8"></rect><rect class="cls-1" x="222.71" y="63.5" width="0.9" height="1.2"></rect><rect class="cls-1" x="222.71" y="66.61" width="0.87" height="7.8"></rect><rect class="cls-1" x="191.66" y="63.5" width="0.9" height="1.2"></rect><rect class="cls-1" x="191.66" y="66.61" width="0.88" height="7.8"></rect><rect class="cls-1" x="180.33" y="63.5" width="0.9" height="1.2"></rect><rect class="cls-1" x="180.33" y="66.61" width="0.88" height="7.8"></rect><rect class="cls-1" x="157.83" y="63.5" width="0.9" height="1.2"></rect><rect class="cls-1" x="157.83" y="66.61" width="0.88" height="7.8"></rect><path class="cls-1" d="M275.47,72.17a3.91,3.91,0,0,1-.68,1.28,3,3,0,0,1-1.06.83,3.39,3.39,0,0,1-2.79,0,3,3,0,0,1-1.06-.83,3.91,3.91,0,0,1-.68-1.28,5.9,5.9,0,0,1,0-3.33,3.81,3.81,0,0,1,.68-1.28,3.18,3.18,0,0,1,1.06-.83,3.5,3.5,0,0,1,2.79,0,3.18,3.18,0,0,1,1.06.83,3.81,3.81,0,0,1,.68,1.28,5.9,5.9,0,0,1,0,3.33Zm-.91-3a3.18,3.18,0,0,0-.48-1.05,2.33,2.33,0,0,0-.76-.68,2.07,2.07,0,0,0-2,0,2.33,2.33,0,0,0-.76.68,3.4,3.4,0,0,0-.49,1.05,5,5,0,0,0-.16,1.32,5.21,5.21,0,0,0,.16,1.35,3.4,3.4,0,0,0,.49,1.05,2.33,2.33,0,0,0,.76.68,2.14,2.14,0,0,0,2,0,2.33,2.33,0,0,0,.76-.68,3.18,3.18,0,0,0,.48-1.05,4.8,4.8,0,0,0,.17-1.35A4.59,4.59,0,0,0,274.56,69.18Z"></path><path class="cls-1" d="M282.41,74.41v-5A2.63,2.63,0,0,0,282,67.8a1.45,1.45,0,0,0-1.23-.61,1.93,1.93,0,0,0-.91.2,2.11,2.11,0,0,0-.69.57,2.89,2.89,0,0,0-.43.9,4.23,4.23,0,0,0-.15,1.16v4.39h-.88v-7.8h.8V68a2.36,2.36,0,0,1,.94-1.16,2.77,2.77,0,0,1,1.46-.36,2.17,2.17,0,0,1,1.82.79,3.56,3.56,0,0,1,.62,2.24v4.94Z"></path><path class="cls-2" d="M55.24.17V49.59L35.38,0H22.86L0,56.15H17.33l2.51-7.22h17.8L40,56.15H70.76V.17ZM23.6,38.08,29,22.49h.16l5,15.59Z"></path><path class="cls-3" d="M99.62,30.91a5.57,5.57,0,0,0-1.73-3.85A5.65,5.65,0,0,0,94,25.73c-6,0-6.82,5.18-6.82,10.12s.86,10,6.82,10c3.37,0,5.72-2.74,6-6h14.82C113.34,51,104.63,57.17,93.66,57.17c-12.24,0-22-8.46-22-21.32s9.8-21.41,22-21.41c10.66,0,19.76,5.25,20.7,16.47Z"></path><path class="cls-3" d="M115,.17h15.53V19.85h.16c2.66-3.14,6.11-5.41,12.7-5.41,7.29,0,14,4.47,14,13.8V56.15H141.8V34.83c0-4.71-.55-8-5.1-8-2.66,0-6.19,1.33-6.19,7.84V56.15H115Z"></path><rect class="cls-4" x="159.47" y="0.13" width="15.53" height="10.9"></rect><rect class="cls-5" x="228.89" y="0.17" width="15.52" height="10.9"></rect><rect class="cls-5" x="228.89" y="15.46" width="15.52" height="40.7"></rect><path class="cls-4" d="M226.75,28.24V56.15H211.23v-22c0-3.84-.4-7.29-5.1-7.29-3.92,0-5.25,3.06-5.25,7.29v22H185.35v-22c0-3.84-.39-7.29-5.1-7.29-3.92,0-5.25,3.06-5.25,7.29v22H159.47V15.46H175v4.9c3.12-4.3,7.51-5.92,12.94-5.92,4.39,0,9.09,2.27,11,6.35.63-.47,3.77-6.35,13.88-6.35C223.22,14.44,226.75,21.65,226.75,28.24Z"></path><path class="cls-6" d="M260.09,39.3c.39,4.62,3.06,7.91,7.92,7.91,2.51,0,5.25-.93,6.51-2.9H289c-3.14,8.79-11.69,12.86-20.94,12.86-13,0-22.82-7.68-22.82-21.25,0-11.84,8.63-21.48,21.49-21.48,16.15,0,23.13,9,23.13,24.86ZM275,31.22a6.68,6.68,0,0,0-6.82-6.82c-4.63,0-7.29,2.43-8,6.82Z"></path><path class="cls-4" d="M228.89,52.38v3.77h3.54a15,15,0,0,1-1.58-4.07A9.2,9.2,0,0,1,228.89,52.38Z"></path><path class="cls-4" d="M143.34,14.39c-.84,0-1.64,0-2.39.11a15.38,15.38,0,0,0-8.1,11.78,4.83,4.83,0,1,0-3.54,8.1,4.68,4.68,0,0,0,1.19-.17c.07-3.12,1-5,2.23-6.07a4.73,4.73,0,0,1,.93-.65,6.36,6.36,0,0,1,3-.71c4.55,0,5.1,3.29,5.1,8v7.33A15.27,15.27,0,0,0,157.3,40.4V28.19C157.3,18.86,150.63,14.39,143.34,14.39Z"></path><path class="cls-5" d="M226.75,28.34a4.83,4.83,0,1,0-4.5,6.53,4.48,4.48,0,0,0,.63-.06,9.7,9.7,0,0,0-4,6.14,4.8,4.8,0,0,0-7.66.42v5.4a4.81,4.81,0,0,0,8.21-.37,9.65,9.65,0,0,0,7.31,5.86v-19a10.88,10.88,0,0,0-1.13.26,4.8,4.8,0,0,0,1.13-1.74Z"></path><path class="cls-5" d="M250.73,30.91a4.83,4.83,0,1,0,0-9.66,21,21,0,0,0-4.21,7.17A4.81,4.81,0,0,0,250.73,30.91Z"></path><path class="cls-5" d="M245.8,33.22l-.36,0a23.65,23.65,0,0,0-.17,2.68c0,10.3,5.66,17.2,14.08,19.93A15.37,15.37,0,0,0,245.8,33.22Z"></path><path class="cls-7" d="M55.24,28.81V49.59L49.06,34.17a18,18,0,0,0,.65,22H70.76V28.21a17.94,17.94,0,0,0-15.52.6ZM40.92,29.88a5.77,5.77,0,1,0,5.76,5.76A5.76,5.76,0,0,0,40.92,29.88Zm47,.16a4.29,4.29,0,0,0-5.1-1.1,7.4,7.4,0,0,0-2.43-10.45A20,20,0,0,0,72.6,29.14c-.09.28-.14.57-.22.85a23,23,0,0,0-.76,5.86,20.57,20.57,0,0,0,8.12,16.89A17.94,17.94,0,0,0,76.63,32.3a7.38,7.38,0,0,0,4-1.22,4.35,4.35,0,0,0,6.51,5.33c0-.19,0-.38,0-.56A18.79,18.79,0,0,1,87.88,30Z"></path></svg>