<svg id="Calque_1" data-name="Calque 1" xmlns="http://www.w3.org/2000/svg" viewBox="0 0 999.92 181.96"><defs><style>.cls-1{fill:#00013f;}</style></defs><title>Logo_Bleu</title><path class="cls-1" d="M135.37,7.59a152.61,152.61,0,0,0-32.5-3.27c-15.71,0-29.69,2.29-41.54,6.78s-21.18,11-27.64,19.36A45.16,45.16,0,0,0,24.2,59.64a35.26,35.26,0,0,0,4.27,16.68,31.6,31.6,0,0,0,10.12,11c-10.86,3.45-19.59,9.16-25.95,17A43.17,43.17,0,0,0,2.9,133c.25,14.3,6.84,25.66,19.6,33.77S52.43,179,73.84,179a162.78,162.78,0,0,0,39.79-4.84A125.11,125.11,0,0,0,128,169.5l.36-.14,6-33.49-1.33.88a83.54,83.54,0,0,1-23.43,10.31,119.25,119.25,0,0,1-32.41,4.3c-27,0-40.75-7.46-41-22.19-.13-7.73,3.21-13.85,9.93-18.19s16.26-6.63,28.05-6.63h49.62L129,77H83.25C75,77,68.56,75.43,64.12,72.31s-6.65-7.49-6.75-13.17C57.22,50.93,61,44.28,68.61,39.38s18.63-7.47,32.53-7.47c19.19,0,35.71,3.69,49.12,11l.82.44,5.17-28.76-.48-.22a96.31,96.31,0,0,0-20.4-6.74"/><path class="cls-1" d="M289.74,153.11c-4.23,0-7.56-1.07-9.89-3.18s-3.53-5.15-3.6-9.1a20.87,20.87,0,0,1,.36-4.94l15.23-83.16.15-.81H262l-11.78,64.56c-2,11.65-6.43,20.5-13,26.29S222.15,151.5,212,151.5c-7.86,0-13.85-1.88-17.81-5.6s-6-9.13-6.13-16.15a47.89,47.89,0,0,1,.74-9.34l12.45-68.49H171.31l-12.38,68.93a69.74,69.74,0,0,0-1.36,14.93c.24,13.38,4.53,23.92,12.76,31.33s19.24,11.15,32.75,11.15a64.77,64.77,0,0,0,25.78-5.14,53,53,0,0,0,19.54-14.5,27.4,27.4,0,0,0,11,14.1c5.57,3.68,12.61,5.54,20.93,5.54a50,50,0,0,0,17.78-3l.36-.13L303,149.89l-1.24.67c-3.26,1.75-8.51,2.55-12,2.55"/><path class="cls-1" d="M384,54.5a43.17,43.17,0,0,0-18,11.74l2.61-14.32H340.11L317.94,175.85l-.14.8h29.93l11.16-61.33c4.35-24.3,18.14-36.63,41-36.63a40.78,40.78,0,0,1,7,.68l.67.12,4.9-28.16.14-.79h-.81c-10.71,0-20,1.33-27.69,4"/><path class="cls-1" d="M455.42,85c6.89-6.62,15.82-10,26.56-10,8.49,0,15.58,2.09,21.07,6.22,5.3,4,8.55,9.65,9.67,16.81L443,111.14c1.55-10.91,5.74-19.71,12.45-26.17Zm69-19.93c-10.54-9.62-24.58-14.51-41.73-14.51-13.63,0-25.91,3.19-36.52,9.46a64.66,64.66,0,0,0-24.72,26.14,76.52,76.52,0,0,0-8.34,37.18c.2,11,2.85,20.76,7.91,29a50.75,50.75,0,0,0,21.64,19.2c9.26,4.49,20.16,6.77,32.41,6.77A87.8,87.8,0,0,0,502.66,174a60.55,60.55,0,0,0,22.42-13l.4-.38-13-21.3-.6.62a38.43,38.43,0,0,1-15,9.3,58.4,58.4,0,0,1-19.48,3.2c-18.9,0-30.28-7-33.85-20.74l96.57-17.89.5-.09.05-.51c.13-1.44.17-3.56.13-6.31C540.5,88.75,535,74.68,524.45,65"/><path class="cls-1" d="M604.3,82.17a39,39,0,0,1,21.13-5.79c14.29,0,24.42,5.63,30.1,16.73l.32.61,25.43-13.34-.32-.6a51.7,51.7,0,0,0-21.33-21.89c-9-4.88-19.93-7.35-32.33-7.35-14.23,0-27,3.18-38,9.45a66.82,66.82,0,0,0-25.74,26c-6.09,11-9.06,23.54-8.82,37.3.2,10.86,2.86,20.54,7.92,28.76a51.57,51.57,0,0,0,21.51,19.31c9.2,4.57,20,6.89,32.07,6.89a73,73,0,0,0,32.64-7.35,56.8,56.8,0,0,0,23.22-20.46l.35-.56-22.38-15.06-.38.56A37.41,37.41,0,0,1,635.77,148a40.45,40.45,0,0,1-18.58,4.2c-10.14,0-18.1-2.69-23.67-8s-8.48-12.8-8.65-22.28a49.88,49.88,0,0,1,5-23.59A39.81,39.81,0,0,1,604.3,82.17"/><path class="cls-1" d="M789.76,106.67a50.09,50.09,0,0,1-5,23.6,40,40,0,0,1-14.44,16.13,39.12,39.12,0,0,1-21.13,5.79c-10,0-17.88-2.7-23.46-8s-8.47-12.82-8.64-22.29a50,50,0,0,1,5-23.59,39.71,39.71,0,0,1,14.44-16.13,39,39,0,0,1,21.13-5.79c10,0,17.87,2.7,23.45,8s8.47,12.82,8.64,22.28m37.84,46.44c-4.39,0-7.79-1.07-10.12-3.17s-3.53-5.15-3.6-9.1a21.26,21.26,0,0,1,.58-5.18l15-82.94.14-.8h-30l-2.92,17.15c-8.64-12.3-22.61-18.54-41.54-18.54a67.92,67.92,0,0,0-35.28,9.34,65.38,65.38,0,0,0-24.48,26c-5.85,11-8.7,23.63-8.46,37.41.2,11.16,2.78,21,7.69,29.32a49.54,49.54,0,0,0,19.91,19.08,59.08,59.08,0,0,0,27.73,6.55,61.29,61.29,0,0,0,25.45-5.14,55.63,55.63,0,0,0,18.74-13.84A26.46,26.46,0,0,0,797.39,173c5.47,3.52,12.39,5.31,20.56,5.31a50.69,50.69,0,0,0,18-3l.36-.13,4.51-25.22-1.21.61a29.45,29.45,0,0,1-12,2.64"/><path class="cls-1" d="M900.5,98.3a39.86,39.86,0,0,1,14.44-16.14,39.1,39.1,0,0,1,21.13-5.78c10,0,17.87,2.7,23.45,8s8.47,12.81,8.65,22.29a50,50,0,0,1-5,23.59,39.83,39.83,0,0,1-14.44,16.13,39.11,39.11,0,0,1-21.14,5.79c-10,0-17.87-2.7-23.44-8s-8.47-12.82-8.64-22.29a49.84,49.84,0,0,1,5-23.59M990.6,76a49.89,49.89,0,0,0-19.91-19A59,59,0,0,0,943,50.54c-14.34,0-26.68,4-36.72,11.93l10.43-58.6H886.73l-30.93,172-.15.8h28.57l3.33-18.42a39.38,39.38,0,0,0,16.31,14.53c7.42,3.65,16.32,5.5,26.45,5.5a65.88,65.88,0,0,0,59.52-35.59c5.85-11.06,8.7-23.65,8.46-37.41-.2-11.15-2.78-21-7.69-29.22"/></svg>